<svg width="84" height="51" viewBox="0 0 84 51" fill="none" xmlns="http://www.w3.org/2000/svg">
<style>
	path {
		fill: #898888;
	}
	@media(prefers-color-scheme: dark) {
		path {
			fill: #ffffff;
		}
	}

</style>
<path d="M18.36 50.256C15.032 50.256 12.0453 49.488 9.4 47.952C6.75467 46.3733 4.664 44.24 3.128 41.552C1.592 38.864 0.802667 35.8347 0.76 32.464V3.28C0.76 2.29867 1.05867 1.50933 1.656 0.911999C2.296 0.314665 3.08533 0.0159988 4.024 0.0159988C5.00533 0.0159988 5.79467 0.314665 6.392 0.911999C6.98933 1.50933 7.288 2.29867 7.288 3.28V20.56C8.78133 18.768 10.5733 17.36 12.664 16.336C14.7973 15.2693 17.1227 14.736 19.64 14.736C22.7547 14.736 25.5493 15.5253 28.024 17.104C30.4987 18.64 32.44 20.752 33.848 23.44C35.2987 26.0853 36.024 29.0933 36.024 32.464C36.024 35.8347 35.2347 38.864 33.656 41.552C32.12 44.24 30.0293 46.3733 27.384 47.952C24.7387 49.488 21.7307 50.256 18.36 50.256ZM18.36 44.496C20.536 44.496 22.4773 43.984 24.184 42.96C25.8907 41.8933 27.2347 40.4427 28.216 38.608C29.24 36.7733 29.752 34.7253 29.752 32.464C29.752 30.16 29.24 28.112 28.216 26.32C27.2347 24.528 25.8907 23.12 24.184 22.096C22.4773 21.0293 20.536 20.496 18.36 20.496C16.2267 20.496 14.2853 21.0293 12.536 22.096C10.8293 23.12 9.48533 24.528 8.504 26.32C7.52267 28.112 7.032 30.16 7.032 32.464C7.032 34.7253 7.52267 36.7733 8.504 38.608C9.48533 40.4427 10.8293 41.8933 12.536 42.96C14.2853 43.984 16.2267 44.496 18.36 44.496ZM51.8865 50C51.2038 50 50.5638 49.808 49.9665 49.424C49.4118 48.9973 49.0278 48.4853 48.8145 47.888L39.3425 19.472C39.0012 18.1493 39.0012 17.0827 39.3425 16.272C39.7265 15.4187 40.5372 14.992 41.7745 14.992C42.5852 14.992 43.2465 15.2267 43.7585 15.696C44.3132 16.1227 44.7612 16.8693 45.1025 17.936L52.0145 39.504L58.5425 17.424C58.7558 16.6987 59.1185 16.1227 59.6305 15.696C60.1425 15.2267 60.8465 14.992 61.7425 14.992C62.5958 14.992 63.2785 15.2267 63.7905 15.696C64.3452 16.1227 64.7078 16.6987 64.8785 17.424L70.6385 39.952L77.6785 17.936C78.2758 15.9733 79.3852 14.992 81.0065 14.992C82.2012 14.992 83.0118 15.4187 83.4385 16.272C83.8652 17.0827 83.8438 18.1493 83.3745 19.472L73.9025 47.888C73.7318 48.4853 73.3692 48.9973 72.8145 49.424C72.2598 49.808 71.6198 50 70.8945 50C70.2118 50 69.5718 49.808 68.9745 49.424C68.3772 48.9973 67.9932 48.4853 67.8225 47.888L61.5505 24.656L54.9585 47.888C54.7878 48.4853 54.4038 48.9973 53.8065 49.424C53.2518 49.808 52.6118 50 51.8865 50Z"/>
</svg>
